<svg width="944" height="860" viewBox="0 0 944 860" fill="none" xmlns="http://www.w3.org/2000/svg">
<path opacity="0.5" d="M661.392 860C660.996 859.132 660.582 858.272 660.148 857.419C659.714 856.566 659.271 855.725 658.817 854.896C658.359 854.069 657.886 853.248 657.398 852.433C656.682 851.212 655.897 850.028 655.113 848.842C654.068 847.269 652.95 845.742 651.832 844.22C650.424 842.321 648.924 840.483 647.406 838.659C646.488 837.551 645.531 836.47 644.574 835.399C643 833.613 641.354 831.888 639.7 830.152C638.046 828.416 636.33 826.731 634.61 825.051C632.891 823.37 631.127 821.71 629.361 820.06C626.174 817.08 622.924 814.161 619.673 811.239C616.059 807.991 612.443 804.743 608.873 801.458C607.446 800.144 606.031 798.819 604.63 797.485C602.878 795.825 601.158 794.134 599.452 792.431C597.746 790.728 596.095 788.998 594.461 787.245C592.826 785.492 591.257 783.701 589.707 781.89C589.72 781.903 589.732 781.918 589.742 781.933C589.126 781.206 588.519 780.473 587.922 779.736C587.014 778.63 586.148 777.501 585.281 776.37C584.414 775.239 583.602 774.093 582.785 772.942C581.968 771.79 581.224 770.659 580.467 769.503C579.975 768.742 579.493 767.976 579.021 767.203C578.316 766.067 577.654 764.906 576.995 763.747C576.336 762.588 575.743 761.442 575.139 760.279C574.535 759.115 574.013 757.996 573.474 756.845L573.452 756.802L573.469 756.838C573.117 756.072 572.776 755.304 572.446 754.533C571.943 753.382 571.487 752.21 571.033 751.042C570.284 749.12 569.642 747.167 569.029 745.208C568.417 743.249 567.936 741.318 567.457 739.354C567.184 738.188 566.946 737.012 566.714 735.843C566.481 734.674 566.298 733.498 566.118 732.332L566.118 732.347C566.066 731.971 566.011 731.594 565.959 731.218C565.853 730.438 565.757 729.653 565.686 728.868C565.549 727.694 565.462 726.518 565.372 725.339C565.194 722.989 565.153 720.632 565.153 718.277C565.153 715.922 565.287 713.564 565.459 711.212C565.631 708.859 565.924 706.524 566.257 704.189C566.44 703.019 566.632 701.848 566.834 700.678C567.107 699.105 567.446 697.543 567.791 695.98C568.135 694.418 568.534 692.848 568.942 691.291C569.349 689.733 569.817 688.163 570.287 686.608C571.235 683.463 572.345 680.361 573.515 677.278C574.702 674.156 576.03 671.081 577.413 668.026L577.392 668.069L577.413 668.024L577.413 668.006L577.413 668.021C577.94 666.882 578.475 665.745 579.018 664.61C579.565 663.454 580.15 662.308 580.729 661.162C582.096 658.463 583.542 655.805 585.027 653.161C586.511 650.518 588.091 647.822 589.715 645.211C591.339 642.6 593.047 639.944 594.775 637.366C596.503 634.787 598.329 632.174 600.155 629.611C601.981 627.048 603.895 624.487 605.816 621.956C609.665 616.883 613.689 611.924 617.798 607.024L617.782 607.046C619.553 604.948 621.342 602.858 623.148 600.776C624.947 598.707 626.775 596.658 628.615 594.616C632.554 590.232 636.587 585.919 640.662 581.642C648.216 573.722 655.99 565.985 663.855 558.318C671.031 551.328 678.308 544.423 685.569 537.501C696.638 526.968 707.777 516.49 718.985 506.068C730.226 495.65 741.595 485.349 753.093 475.164C764.591 464.98 776.255 454.987 788.084 445.184C793.708 440.524 799.382 435.916 805.107 431.362C810.733 426.868 816.336 422.353 821.916 417.819C827.15 413.555 832.344 409.247 837.498 404.895C843.117 400.141 848.653 395.309 854.108 390.398C859.143 385.864 864.078 381.238 868.911 376.522C871.322 374.181 873.697 371.805 876.037 369.394C878.771 366.61 881.431 363.773 884.064 360.914C886.305 358.476 888.489 355.996 890.652 353.498C892.464 351.404 894.23 349.274 895.98 347.135C898.041 344.627 900.031 342.044 901.994 339.458C903.907 336.935 905.744 334.362 907.543 331.768C910.405 327.638 913.076 323.399 915.629 319.105C916.911 316.951 918.133 314.767 919.339 312.585C920.747 310.021 922.073 307.421 923.371 304.81C925.427 300.674 927.31 296.463 929.087 292.222C930.049 289.925 930.949 287.605 931.821 285.28C932.846 282.571 933.784 279.835 934.691 277.091C935.465 274.744 936.173 272.379 936.859 270.008C937.545 267.638 938.163 265.261 938.756 262.876C939.349 260.49 939.872 258.11 940.369 255.708C940.949 252.924 941.438 250.122 941.889 247.316C942.214 245.287 942.488 243.25 942.742 241.211C943.045 238.816 943.272 236.414 943.475 234.008C943.677 231.603 943.792 229.233 943.89 226.825C944.005 224.039 944.016 221.25 943.986 218.464C943.958 216.084 943.852 213.698 943.712 211.331C943.573 208.963 943.36 206.606 943.114 204.248C942.991 203.074 942.84 201.901 942.69 200.737C942.583 199.927 942.469 199.112 942.343 198.302C942.161 197.131 941.972 195.967 941.777 194.808C941.504 193.263 941.2 191.723 940.883 190.183C940.41 187.881 939.847 185.593 939.243 183.314C938.639 181.034 937.969 178.784 937.258 176.542C936.547 174.3 935.741 172.08 934.907 169.873C933.931 167.297 932.838 164.759 931.695 162.244C930.875 160.413 929.965 158.607 929.043 156.811C927.95 154.685 926.775 152.6 925.561 150.541C924.347 148.482 923.029 146.428 921.687 144.414C920.107 142.044 918.407 139.744 916.66 137.475C915.383 135.812 914.036 134.197 912.672 132.591C911.031 130.673 909.328 128.829 907.584 126.991C905.84 125.153 903.957 123.352 902.076 121.591C899.837 119.5 897.494 117.508 895.11 115.56C893.025 113.852 890.86 112.229 888.673 110.631C886.718 109.207 884.706 107.852 882.683 106.511C879.969 104.715 877.177 103.017 874.362 101.359C872.976 100.544 871.568 99.764 870.157 98.9841C868.298 97.9557 866.407 96.9777 864.507 96.0171C861.702 94.5925 858.835 93.2759 855.948 92.0043C854.521 91.3722 853.075 90.7779 851.631 90.1835C850.647 89.7772 849.647 89.3809 848.652 89.0022L847.203 88.4503C846.239 88.0875 845.27 87.7322 844.297 87.3844C842.851 86.8602 841.385 86.3812 839.923 85.8796C836.539 84.7535 833.089 83.7704 829.644 82.845C826.708 82.06 823.737 81.3852 820.76 80.7432C817.783 80.1011 814.811 79.5795 811.818 79.0879C810.325 78.8371 808.827 78.634 807.327 78.4233C806.301 78.2803 805.263 78.1475 804.232 78.0271C802.73 77.8515 801.229 77.6843 799.727 77.5254C797.72 77.3248 795.714 77.1768 793.713 77.0239C790.706 76.8132 787.68 76.7028 784.659 76.625C781.638 76.5473 778.607 76.5649 775.58 76.625C772.554 76.6852 769.52 76.8207 766.494 76.9938C762.954 77.1994 759.422 77.5204 755.895 77.8841C753.336 78.1499 750.786 78.4785 748.241 78.8246C745.212 79.2334 742.194 79.725 739.181 80.2441C736.169 80.7632 733.167 81.3627 730.16 81.9872C726.645 82.7195 723.154 83.5472 719.674 84.4125C716.667 85.1648 713.704 85.9724 710.735 86.81C707.766 87.6477 704.803 88.5657 701.856 89.4887C698.909 90.4117 695.97 91.4148 693.045 92.4306C689.625 93.6219 686.238 94.8885 682.865 96.1927C677.037 98.4348 671.296 100.865 665.613 103.401C662.311 104.873 659.052 106.41 655.793 107.98C652.535 109.55 649.331 111.171 646.133 112.823C640.217 115.878 634.411 119.111 628.675 122.444C622.557 126 616.565 129.737 610.663 133.582C605.13 137.189 599.729 140.961 594.327 144.728C588.765 148.607 583.222 152.513 577.698 156.445C566.26 164.566 554.872 172.747 543.431 180.863L543.505 180.811C538.001 184.711 532.481 188.592 526.944 192.453C520.994 196.601 515.006 200.704 508.981 204.762C502.956 208.82 496.899 212.797 490.811 216.693C484.731 220.604 478.587 224.427 472.38 228.162C466.643 231.628 460.84 235.001 454.969 238.279C448.671 241.809 442.292 245.21 435.834 248.482C429.375 251.754 422.84 254.877 416.228 257.85C412.92 259.342 409.579 260.776 406.228 262.186C402.877 263.595 399.533 264.925 396.16 266.236L396.182 266.236C394.724 266.798 393.259 267.354 391.789 267.904C390.321 268.453 388.845 268.988 387.368 269.519C383.916 270.773 380.433 271.942 376.939 273.088C373.446 274.234 369.892 275.315 366.344 276.349C362.795 277.382 359.176 278.373 355.573 279.311C351.97 280.249 348.282 281.116 344.616 281.941C340.951 282.767 337.197 283.522 333.468 284.231C329.74 284.941 325.913 285.576 322.118 286.165C318.616 286.707 315.101 287.168 311.583 287.61L311.49 287.61L311.533 287.61C310.075 287.777 308.618 287.944 307.16 288.111C305.169 288.334 303.179 288.528 301.189 288.718C297.176 289.102 293.158 289.4 289.134 289.656C285.11 289.912 281.012 290.093 276.95 290.228C272.887 290.363 268.749 290.414 264.662 290.426C260.575 290.439 256.42 290.361 252.3 290.248C248.181 290.135 244.023 289.935 239.889 289.694C235.756 289.453 231.598 289.127 227.459 288.761C223.32 288.395 219.239 287.948 215.141 287.459C213.589 287.268 212.04 287.071 210.494 286.867C208.427 286.596 206.363 286.298 204.305 285.995C200.694 285.463 197.096 284.861 193.507 284.239C189.918 283.617 186.339 282.91 182.769 282.18C178.693 281.347 174.642 280.424 170.602 279.459C167.07 278.616 163.559 277.703 160.06 276.755C156.069 275.676 152.108 274.498 148.164 273.291C144.722 272.233 141.307 271.099 137.904 269.936C134.028 268.611 130.192 267.189 126.373 265.725L126.403 265.737C125.479 265.381 124.557 265.019 123.637 264.651C122.215 264.092 120.805 263.513 119.394 262.931C116.579 261.775 113.796 260.558 111.018 259.319C108.241 258.08 105.521 256.794 102.798 255.479C100.075 254.165 97.4074 252.798 94.7421 251.406C92.5251 250.253 90.3408 249.051 88.1621 247.84C85.5541 246.388 82.9872 244.878 80.4367 243.346C77.8862 241.813 75.393 240.226 72.9108 238.615C70.4287 237.005 68.0394 235.368 65.6448 233.692L65.6858 233.722C64.8857 233.157 64.0884 232.588 63.2939 232.014C62.4993 231.441 61.711 230.863 60.9291 230.281C58.8926 228.776 56.8997 227.234 54.915 225.674C53.3104 224.42 51.7413 223.106 50.1777 221.799C48.245 220.184 46.3505 218.521 44.4943 216.843C43.0154 215.517 41.5748 214.157 40.1396 212.793C38.3627 211.105 36.6378 209.367 34.9292 207.621C33.2206 205.876 31.6024 204.11 29.9813 202.334C28.3602 200.559 26.8456 198.783 25.334 196.977C24.738 196.268 24.1494 195.554 23.5681 194.835C22.9867 194.117 22.398 193.382 21.8021 192.631C20.345 190.798 18.9454 188.924 17.5622 187.043C16.4687 185.538 15.4025 184.033 14.3501 182.504C13.0406 180.605 11.7914 178.676 10.5557 176.735C9.57165 175.19 8.64221 173.623 7.69635 172.055C6.5318 170.101 5.42737 168.118 4.33661 166.126C2.38202 162.557 0.591492 158.913 -1.11438 155.241L-1.07056 155.339C-1.44409 154.523 -1.81323 153.705 -2.17767 152.884C-2.72443 151.655 -3.24933 150.416 -3.77142 149.177C-4.64075 147.115 -5.44989 145.031 -6.23175 142.942C-7.01361 140.853 -7.75989 138.746 -8.47613 136.634C-9.33996 134.099 -10.1163 131.538 -10.879 128.975C-11.5105 126.833 -12.0818 124.679 -12.6395 122.522C-13.1972 120.365 -13.6947 118.185 -14.1813 116.001C-14.6679 113.816 -15.097 111.629 -15.5099 109.435C-16.0074 106.794 -16.4311 104.14 -16.8275 101.484L-16.8111 101.592C-17.0025 100.258 -17.1829 98.9264 -17.3578 97.5795C-17.5328 96.2327 -17.6804 94.9034 -17.8307 93.5667C-18.1779 90.4291 -18.4294 87.2815 -18.6508 84.1339C-18.8367 81.4228 -18.9515 78.7066 -19.0417 75.9905C-19.1456 72.8078 -19.1592 69.62 -19.1374 66.4349C-19.1183 63.676 -19.0309 60.9424 -18.9188 58.1986C-18.793 54.9783 -18.5743 51.7605 -18.3256 48.5477C-18.1095 45.7889 -17.8281 43.0125 -17.5273 40.2487C-17.1747 37.0334 -16.74 33.8232 -16.2753 30.6179C-15.9289 28.3105 -15.5591 26.0056 -15.1654 23.7032C-14.6924 20.9193 -14.1539 18.1429 -13.599 15.3691C-13.4131 14.4436 -13.219 13.5182 -13.025 12.5928C-12.9238 12.1288 -12.8254 11.6672 -12.727 11.2033C-12.5301 10.2753 -12.337 9.34647 -12.1474 8.41685C-11.5734 5.61539 -11.0348 2.80644 -10.4908 -2.24091e-05C-10.6357 0.458962 -10.7778 0.91288 -10.9227 1.3693C-11.2034 2.27891 -11.4767 3.19181 -11.7428 4.10807C-12.1446 5.47746 -12.5 6.86698 -12.8555 8.23881C-13.2109 9.6107 -13.5143 10.9976 -13.815 12.3946C-14.1157 13.7915 -14.3918 15.171 -14.6705 16.5604C-15.2173 19.3318 -15.7203 22.1106 -16.1987 24.8921C-16.6771 27.6734 -17.0926 30.5075 -17.4891 33.3216C-18.2627 38.8392 -18.834 44.3819 -19.2687 49.9322C-19.4846 52.691 -19.6349 55.4498 -19.7634 58.2086C-19.9083 61.4063 -19.9712 64.609 -19.9958 67.8117C-20.0149 70.543 -19.9658 73.2743 -19.8947 76.0005C-19.8236 78.7267 -19.6787 81.4328 -19.5092 84.144C-19.3398 86.8552 -19.1046 89.5413 -18.8395 92.2324C-18.5306 95.3625 -18.1287 98.4799 -17.6858 101.595C-17.366 103.852 -16.9888 106.089 -16.5923 108.331C-16.1304 110.97 -15.5919 113.598 -15.026 116.219C-14.4601 118.84 -13.8204 121.433 -13.1534 124.029C-12.3771 127.039 -11.494 130.048 -10.5728 133.028C-9.78277 135.583 -8.91076 138.117 -8.0141 140.64C-7.11749 143.163 -6.13879 145.656 -5.13281 148.151C-4.12677 150.647 -3.03607 153.102 -1.92071 155.555C-0.805359 158.008 0.42749 160.498 1.67401 162.941C2.92053 165.384 4.21912 167.741 5.55865 170.109C6.89819 172.476 8.33606 174.827 9.79034 177.149C11.2447 179.471 12.7974 181.779 14.372 184.056C16.22 186.732 18.1718 189.345 20.1646 191.934C21.0257 193.05 21.9114 194.151 22.7971 195.249C23.4122 196.002 24.041 196.772 24.6752 197.522C25.5865 198.612 26.5149 199.699 27.4608 200.782C28.4012 201.865 29.3743 202.929 30.3366 203.992C32.2884 206.139 34.3168 208.228 36.3671 210.295C38.7973 212.74 41.3206 215.105 43.8792 217.435C46.1072 219.464 48.409 221.428 50.7299 223.367C53.0508 225.305 55.5192 227.239 57.9686 229.115C60.2922 230.896 62.6706 232.626 65.0762 234.312C67.4819 235.997 69.9968 237.697 72.4872 239.328C74.9775 240.958 77.4816 242.513 80.0157 244.055C82.5498 245.598 85.1414 247.085 87.7411 248.55C90.3408 250.014 92.9925 251.424 95.6523 252.813C98.7632 254.436 101.923 255.981 105.1 257.493C107.834 258.795 110.6 260.036 113.375 261.255C116.149 262.474 118.976 263.643 121.8 264.789C124.197 265.76 126.614 266.688 129.033 267.603C132.382 268.87 135.766 270.058 139.148 271.217C144.99 273.224 150.903 275.017 156.859 276.705C159.844 277.552 162.852 278.343 165.861 279.112C169.377 280.013 172.917 280.841 176.463 281.641C182.548 283.015 188.682 284.201 194.836 285.277C197.916 285.816 201.005 286.3 204.097 286.767C205.642 287 207.192 287.216 208.744 287.429C210.297 287.642 211.921 287.858 213.512 288.054C215.103 288.249 216.615 288.427 218.159 288.608C219.704 288.788 221.265 288.946 222.807 289.109C225.912 289.433 229.02 289.699 232.131 289.95C238.842 290.491 245.575 290.827 252.308 291.036C258.478 291.226 264.654 291.244 270.824 291.153C277.442 291.056 284.055 290.76 290.656 290.333C296.67 289.945 302.668 289.38 308.652 288.711C311.156 288.43 313.655 288.109 316.151 287.778C319.866 287.276 323.564 286.712 327.255 286.1C330.489 285.563 333.706 284.956 336.918 284.329C340.13 283.702 343.274 283.012 346.437 282.298C349.6 281.583 352.7 280.813 355.816 280.018C359.427 279.092 363.011 278.089 366.587 277.053C371.658 275.584 376.68 273.969 381.669 272.288C386.658 270.608 391.543 268.802 396.43 266.926C400.84 265.231 405.203 263.435 409.552 261.589C414.331 259.56 419.049 257.418 423.737 255.221C428.425 253.024 433.062 250.729 437.662 248.387C442.263 246.044 446.826 243.609 451.353 241.134C455.88 238.658 460.374 236.095 464.83 233.502C469.286 230.908 473.722 228.235 478.121 225.539C486.953 220.124 495.641 214.503 504.244 208.79C512.891 203.047 521.431 197.168 529.921 191.234C538.04 185.564 546.119 179.848 554.158 174.087C563.039 167.751 571.922 161.418 580.806 155.086L580.729 155.136C584.542 152.434 588.362 149.741 592.189 147.058C596.397 144.105 600.621 141.174 604.862 138.265C608.569 135.737 612.336 133.284 616.128 130.869C620.387 128.157 624.717 125.544 629.085 122.983C633.041 120.663 637.057 118.426 641.114 116.237C645.624 113.794 650.203 111.471 654.82 109.192C659.437 106.912 664.137 104.763 668.866 102.671C673.595 100.579 678.374 98.6304 683.199 96.7519L683.111 96.7845C684.075 96.41 685.041 96.0414 686.009 95.6785C687.458 95.1293 688.915 94.6 690.383 94.0683C693.291 93.0124 696.225 92.0143 699.169 91.0386C702.113 90.063 705.06 89.1576 708.026 88.2798C710.992 87.402 713.961 86.5794 716.943 85.7868C719.422 85.1272 721.918 84.5328 724.417 83.9309C727.405 83.2211 730.412 82.5866 733.422 81.9797C736.431 81.3728 739.436 80.8435 742.465 80.3419C745.494 79.8403 748.501 79.4241 751.53 79.0328L751.483 79.0328C752.473 78.9074 753.468 78.7819 754.46 78.6766C755.452 78.5713 756.477 78.4559 757.489 78.353C759.504 78.1449 761.524 77.9819 763.547 77.8264C765.57 77.6709 767.584 77.5605 769.605 77.4577C772.125 77.3323 774.651 77.2721 777.174 77.2294C779.192 77.1968 781.209 77.2144 783.224 77.2294C785.744 77.2596 788.262 77.3598 790.777 77.4802C792.789 77.5781 794.798 77.7311 796.807 77.8841C799.303 78.0772 801.791 78.3481 804.279 78.6365C805.762 78.8221 807.243 79.0185 808.721 79.2258C810.722 79.5068 812.712 79.8428 814.699 80.1865C816.687 80.5301 818.674 80.9388 820.656 81.3401C822.638 81.7414 824.614 82.2179 826.583 82.6944C828.067 83.0506 829.54 83.4469 831.014 83.8406C832.985 84.3698 834.939 84.9542 836.891 85.5486C838.843 86.1431 840.798 86.8026 842.736 87.4672C844.674 88.1318 846.563 88.844 848.46 89.5689L848.545 89.5991L848.479 89.5765L849.901 90.1332C850.865 90.5178 851.826 90.9091 852.785 91.3071C854.72 92.1046 856.612 92.9598 858.526 93.815C859.966 94.4696 861.382 95.1593 862.801 95.849C864.715 96.7795 866.59 97.7651 868.46 98.7608C869.879 99.5132 871.278 100.306 872.672 101.093C874.559 102.162 876.407 103.283 878.246 104.411C879.643 105.272 881.016 106.167 882.391 107.06C883.99 108.098 885.556 109.184 887.112 110.278L888.205 111.073C888.943 111.604 889.672 112.144 890.392 112.69C891.486 113.496 892.533 114.331 893.59 115.166C896.021 117.082 898.35 119.098 900.635 121.157C902.877 123.176 905.009 125.291 907.1 127.44C909.14 129.542 911.07 131.729 912.953 133.946C913.74 134.894 914.518 135.848 915.285 136.807C916.313 138.094 917.294 139.408 918.267 140.728C919.957 143.02 921.529 145.382 923.054 147.768C924.579 150.153 925.96 152.57 927.305 155.026C928.65 157.481 929.784 159.982 930.96 162.487C931.28 163.184 931.591 163.884 931.9 164.589C932.209 165.294 932.523 166.036 932.827 166.766C933.437 168.218 934 169.688 934.555 171.16C935.667 174.104 936.629 177.096 937.526 180.101C938.423 183.106 939.166 186.163 939.852 189.22C940.539 192.277 941.077 195.375 941.556 198.472C941.668 199.225 941.771 199.977 941.873 200.729C941.974 201.482 942.075 202.294 942.165 203.077C942.403 205.036 942.575 206.999 942.734 208.966C943.051 212.921 943.166 216.886 943.179 220.851C943.193 224.816 943.015 228.837 942.736 232.822C942.458 236.807 941.993 240.848 941.435 244.83L941.452 244.73C941.334 245.53 941.217 246.333 941.091 247.13C940.905 248.334 940.697 249.533 940.487 250.729C940.068 253.134 939.576 255.527 939.065 257.915C938.554 260.302 937.972 262.695 937.357 265.073C936.742 267.45 936.069 269.838 935.369 272.19C934.082 276.534 932.605 280.833 931.025 285.094C929.298 289.757 927.357 294.349 925.285 298.888C925.301 298.858 925.315 298.828 925.328 298.798C924.98 299.555 924.63 300.308 924.276 301.055C923.746 302.184 923.196 303.312 922.636 304.431C921.542 306.673 920.378 308.893 919.2 311.102C916.846 315.509 914.298 319.828 911.633 324.081C909.205 327.961 906.611 331.753 903.926 335.488C902.111 338.011 900.217 340.486 898.303 342.947C896.313 345.507 894.244 348.02 892.158 350.516C892.167 350.504 892.177 350.492 892.188 350.481L892.133 350.543C891.089 351.777 890.038 353.005 888.981 354.225C887.888 355.479 886.795 356.708 885.701 357.942C883.489 360.42 881.221 362.85 878.932 365.271C876.644 367.691 874.285 370.088 871.918 372.464C869.149 375.247 866.319 377.981 863.471 380.695C858.575 385.362 853.548 389.914 848.471 394.414C842.982 399.277 837.389 404.037 831.752 408.755C826.602 413.063 821.408 417.327 816.17 421.545C810.454 426.175 804.689 430.752 798.961 435.37C786.98 445.028 775.236 454.932 763.642 464.987C752.049 475.042 740.606 485.302 729.288 495.655C717.971 506.008 706.804 516.472 695.691 526.98C691.039 531.383 686.397 535.797 681.766 540.222C678.025 543.792 674.289 547.365 670.558 550.942C662.82 558.379 655.187 565.903 647.658 573.514C643.878 577.36 640.142 581.243 636.45 585.164C632.386 589.482 628.397 593.862 624.485 598.303C621.126 602.1 617.839 605.951 614.624 609.855C610.832 614.435 607.162 619.095 603.616 623.837C600.357 628.171 597.227 632.584 594.226 637.075C592.736 639.292 591.292 641.539 589.874 643.794C588.233 646.404 586.661 649.06 585.125 651.714C583.821 653.971 582.583 656.261 581.369 658.561C580.155 660.861 579.032 663.14 577.925 665.455C577.001 667.387 576.134 669.338 575.284 671.294C574.122 673.975 573.061 676.694 572.053 679.425C571.197 681.74 570.432 684.08 569.699 686.43C568.966 688.78 568.351 691.1 567.761 693.452C567.17 695.805 566.697 698.14 566.26 700.497C565.823 702.855 565.495 705.24 565.21 707.623C564.926 710.005 564.773 712.328 564.664 714.688C564.554 717.048 564.562 719.395 564.623 721.75C564.653 722.929 564.726 724.105 564.803 725.282C564.88 726.458 564.997 727.637 565.12 728.81C565.243 729.984 565.407 731.163 565.574 732.337C565.741 733.511 565.965 734.729 566.184 735.921C566.402 737.112 566.667 738.271 566.933 739.432C567.198 740.593 567.512 741.777 567.826 742.943C568.141 744.109 568.51 745.286 568.876 746.454C569.242 747.623 569.663 748.792 570.079 749.966C570.495 751.139 570.973 752.298 571.446 753.457C571.919 754.615 572.446 755.787 572.971 756.943C573.335 757.743 573.72 758.525 574.106 759.316C574.866 760.881 575.699 762.413 576.544 763.94C577.189 765.107 577.881 766.25 578.572 767.394C579.264 768.538 580.027 769.699 580.776 770.84C581.525 771.981 582.348 773.137 583.157 774.273C583.966 775.409 584.844 776.558 585.71 777.684C587.167 779.583 588.717 781.421 590.275 783.247C591.205 784.333 592.17 785.394 593.132 786.457C594.417 787.874 595.745 789.259 597.077 790.641C599.078 792.715 601.15 794.736 603.233 796.743C605.316 798.749 607.459 800.728 609.6 802.697C611.74 804.666 613.913 806.614 616.084 808.563C618.255 810.512 620.425 812.458 622.593 814.409C624.761 816.36 626.901 818.322 629.036 820.298C631.171 822.274 633.254 824.271 635.324 826.292C637.393 828.314 639.391 830.37 641.365 832.459C642.349 833.498 643.309 834.561 644.263 835.625C645.217 836.688 646.144 837.771 647.068 838.857L647.037 838.82C647.65 839.547 648.253 840.279 648.847 841.017C649.441 841.754 650.027 842.498 650.605 843.249C651.184 844.001 651.75 844.754 652.311 845.506C653.158 846.647 653.951 847.819 654.771 848.987C655.298 849.771 655.818 850.562 656.332 851.36C656.846 852.157 657.351 852.96 657.846 853.768C658.34 854.578 658.827 855.394 659.306 856.213C660.031 857.449 660.709 858.708 661.381 859.975L661.392 860ZM892.153 350.561L892.177 350.533L892.15 350.564L892.153 350.561ZM617.817 606.988L617.787 607.024C617.799 607.013 617.809 607.001 617.817 606.988Z" fill="#7D8F91"/>
</svg>
