<svg width="658" height="406" viewBox="0 0 658 406" fill="none" xmlns="http://www.w3.org/2000/svg">
<path opacity="0.5" d="M465.099 640C464.83 639.354 464.547 638.714 464.251 638.079C463.954 637.445 463.652 636.819 463.342 636.202C463.03 635.586 462.707 634.975 462.373 634.369C461.884 633.46 461.349 632.579 460.813 631.696C460.101 630.526 459.337 629.389 458.574 628.256C457.613 626.843 456.589 625.475 455.553 624.118C454.926 623.294 454.273 622.489 453.62 621.692C452.546 620.363 451.422 619.079 450.293 617.788C449.164 616.496 447.993 615.242 446.819 613.991C445.645 612.741 444.442 611.505 443.236 610.277C441.061 608.06 438.842 605.887 436.624 603.713C434.157 601.296 431.688 598.879 429.251 596.434C428.277 595.456 427.312 594.47 426.355 593.477C425.159 592.242 423.986 590.984 422.821 589.716C421.657 588.449 420.53 587.161 419.414 585.857C418.298 584.552 417.227 583.219 416.169 581.872C416.178 581.882 416.186 581.892 416.193 581.904C415.773 581.362 415.359 580.817 414.951 580.269C414.331 579.445 413.74 578.606 413.148 577.764C412.557 576.922 412.003 576.069 411.445 575.212C410.887 574.356 410.379 573.514 409.862 572.653C409.526 572.087 409.197 571.517 408.875 570.942C408.394 570.096 407.942 569.232 407.493 568.37C407.043 567.508 406.638 566.655 406.226 565.789C405.813 564.923 405.457 564.09 405.089 563.234L405.074 563.202L405.086 563.228C404.845 562.658 404.613 562.086 404.388 561.513C404.044 560.656 403.733 559.784 403.423 558.915C402.912 557.485 402.473 556.031 402.055 554.573C401.637 553.116 401.309 551.678 400.982 550.217C400.796 549.349 400.633 548.474 400.475 547.604C400.316 546.734 400.191 545.859 400.068 544.991L400.068 545.002C400.033 544.722 399.995 544.442 399.96 544.162C399.887 543.582 399.822 542.998 399.773 542.414C399.68 541.54 399.62 540.665 399.559 539.787C399.437 538.039 399.409 536.284 399.409 534.532C399.409 532.779 399.501 531.025 399.618 529.274C399.736 527.523 399.936 525.785 400.163 524.048C400.288 523.177 400.419 522.306 400.557 521.435C400.744 520.265 400.975 519.102 401.21 517.939C401.445 516.776 401.718 515.608 401.996 514.449C402.274 513.29 402.593 512.121 402.914 510.964C403.561 508.624 404.319 506.315 405.117 504.021C405.927 501.697 406.834 499.409 407.778 497.136L407.763 497.167L407.778 497.134L407.778 497.121L407.778 497.132C408.138 496.285 408.503 495.438 408.873 494.594C409.247 493.733 409.646 492.88 410.041 492.027C410.974 490.019 411.962 488.041 412.975 486.073C413.988 484.106 415.066 482.1 416.175 480.157C417.283 478.214 418.449 476.237 419.629 474.319C420.808 472.4 422.054 470.455 423.301 468.548C424.547 466.64 425.853 464.734 427.165 462.851C429.792 459.075 432.539 455.385 435.344 451.738L435.332 451.755C436.541 450.194 437.762 448.638 438.995 447.089C440.223 445.549 441.471 444.024 442.727 442.505C445.416 439.243 448.168 436.032 450.95 432.85C456.106 426.956 461.412 421.198 466.781 415.492C471.679 410.291 476.646 405.152 481.602 400.001C489.158 392.162 496.761 384.365 504.411 376.609C512.084 368.856 519.844 361.19 527.692 353.611C535.54 346.032 543.502 338.595 551.576 331.299C555.415 327.832 559.288 324.403 563.195 321.013C567.035 317.669 570.86 314.309 574.669 310.935C578.242 307.762 581.787 304.556 585.305 301.317C589.14 297.779 592.919 294.183 596.642 290.529C600.079 287.154 603.447 283.712 606.746 280.202C608.392 278.46 610.013 276.692 611.611 274.898C613.477 272.826 615.292 270.715 617.089 268.587C618.619 266.773 620.11 264.927 621.586 263.068C622.823 261.51 624.028 259.925 625.223 258.333C626.63 256.467 627.988 254.544 629.328 252.62C630.634 250.742 631.888 248.827 633.116 246.897C635.069 243.823 636.892 240.669 638.635 237.474C639.51 235.87 640.344 234.245 641.167 232.621C642.128 230.714 643.033 228.778 643.919 226.835C645.322 223.757 646.608 220.624 647.821 217.467C648.478 215.758 649.092 214.031 649.687 212.301C650.387 210.285 651.027 208.249 651.646 206.207C652.174 204.46 652.657 202.7 653.126 200.936C653.594 199.173 654.016 197.403 654.421 195.628C654.826 193.853 655.182 192.082 655.522 190.294C655.917 188.222 656.251 186.137 656.559 184.049C656.781 182.539 656.968 181.023 657.141 179.506C657.348 177.724 657.503 175.936 657.641 174.146C657.779 172.356 657.858 170.592 657.925 168.8C658.003 166.727 658.011 164.651 657.99 162.578C657.972 160.806 657.899 159.031 657.804 157.269C657.709 155.508 657.563 153.753 657.395 151.999C657.311 151.125 657.208 150.252 657.106 149.385C657.033 148.783 656.955 148.176 656.869 147.573C656.744 146.702 656.616 145.836 656.483 144.973C656.296 143.824 656.089 142.678 655.872 141.532C655.55 139.818 655.165 138.116 654.753 136.419C654.341 134.723 653.883 133.049 653.398 131.38C652.913 129.711 652.363 128.06 651.794 126.417C651.127 124.5 650.381 122.612 649.601 120.74C649.041 119.377 648.42 118.033 647.791 116.697C647.045 115.114 646.242 113.563 645.414 112.031C644.585 110.498 643.686 108.97 642.77 107.471C641.691 105.707 640.531 103.996 639.338 102.307C638.467 101.069 637.547 99.8671 636.616 98.6726C635.496 97.2448 634.334 95.873 633.144 94.5049C631.953 93.1368 630.667 91.7968 629.384 90.4865C627.855 88.9299 626.256 87.4479 624.629 85.9977C623.206 84.7267 621.728 83.519 620.235 82.3301C618.901 81.27 617.528 80.2621 616.147 79.2635C614.294 77.9272 612.389 76.6637 610.467 75.43C609.521 74.8234 608.56 74.2429 607.597 73.6625C606.328 72.8972 605.037 72.1693 603.74 71.4545C601.826 70.3943 599.868 69.4145 597.898 68.4682C596.924 67.9979 595.937 67.5555 594.952 67.1132C594.28 66.8108 593.597 66.5159 592.918 66.2341L591.929 65.8234C591.271 65.5533 590.61 65.2889 589.945 65.0301C588.958 64.6401 587.958 64.2836 586.96 63.9103C584.65 63.0723 582.295 62.3406 579.944 61.652C577.94 61.0677 575.912 60.5657 573.88 60.0878C571.848 59.61 569.819 59.2219 567.776 58.856C566.757 58.6694 565.735 58.5182 564.71 58.3614C564.011 58.255 563.302 58.1562 562.598 58.0666C561.573 57.9359 560.548 57.8115 559.523 57.6932C558.154 57.5439 556.784 57.4338 555.418 57.32C553.366 57.1632 551.3 57.081 549.238 57.0232C547.176 56.9653 545.107 56.9784 543.041 57.0232C540.976 57.068 538.905 57.1688 536.839 57.2975C534.423 57.4506 532.012 57.6896 529.605 57.9601C527.858 58.158 526.117 58.4025 524.38 58.66C522.313 58.9643 520.253 59.3301 518.197 59.7165C516.14 60.1028 514.091 60.5489 512.039 61.0136C509.639 61.5586 507.257 62.1745 504.881 62.8185C502.829 63.3784 500.806 63.9794 498.78 64.6027C496.753 65.2261 494.731 65.9092 492.719 66.5961C490.708 67.2829 488.702 68.0295 486.705 68.7854C484.371 69.672 482.059 70.6145 479.756 71.5851C475.778 73.2536 471.86 75.0622 467.981 76.9492C465.727 78.0448 463.502 79.1889 461.278 80.3573C459.054 81.5257 456.867 82.7315 454.684 83.9614C450.646 86.2347 446.683 88.6406 442.768 91.1211C438.592 93.7677 434.502 96.5487 430.473 99.41C426.697 102.094 423.01 104.901 419.323 107.704C415.526 110.591 411.743 113.498 407.972 116.424C400.165 122.468 392.392 128.556 384.583 134.596L384.633 134.557C380.876 137.46 377.108 140.348 373.329 143.221C369.268 146.308 365.181 149.361 361.068 152.381C356.956 155.401 352.821 158.361 348.665 161.26C344.516 164.17 340.322 167.015 336.085 169.795C332.169 172.374 328.208 174.884 324.201 177.324C319.902 179.951 315.548 182.482 311.14 184.917C306.731 187.352 302.27 189.676 297.757 191.888C295.499 192.998 293.219 194.066 290.932 195.115C288.644 196.164 286.362 197.153 284.059 198.129L284.074 198.129C283.079 198.547 282.08 198.961 281.076 199.37C280.074 199.779 279.066 200.177 278.059 200.572C275.702 201.506 273.325 202.375 270.94 203.228C268.555 204.081 266.13 204.886 263.708 205.655C261.286 206.424 258.815 207.161 256.356 207.859C253.897 208.557 251.379 209.203 248.877 209.817C246.375 210.431 243.813 210.993 241.268 211.521C238.723 212.049 236.111 212.521 233.521 212.96C231.13 213.363 228.731 213.707 226.329 214.035L226.266 214.035L226.296 214.035C225.301 214.159 224.305 214.284 223.31 214.408C221.952 214.574 220.593 214.718 219.235 214.86C216.496 215.146 213.753 215.368 211.006 215.558C208.26 215.748 205.463 215.883 202.69 215.984C199.917 216.084 197.092 216.122 194.302 216.131C191.513 216.14 188.677 216.083 185.865 215.998C183.053 215.915 180.215 215.765 177.393 215.586C174.572 215.407 171.734 215.164 168.909 214.892C166.084 214.619 163.298 214.287 160.501 213.923C159.441 213.781 158.384 213.634 157.329 213.483C155.918 213.281 154.51 213.059 153.104 212.833C150.64 212.437 148.184 211.989 145.734 211.527C143.284 211.064 140.842 210.537 138.405 209.994C135.623 209.375 132.857 208.688 130.099 207.969C127.689 207.342 125.293 206.663 122.904 205.957C120.18 205.154 117.476 204.277 114.784 203.38C112.435 202.592 110.104 201.748 107.781 200.882C105.135 199.897 102.517 198.839 99.9106 197.748L99.931 197.758C99.3003 197.493 98.6709 197.223 98.0427 196.95C97.0724 196.533 96.1096 196.102 95.1468 195.669C93.2249 194.809 91.3254 193.904 89.4295 192.982C87.5337 192.06 85.6772 191.102 83.8187 190.124C81.9602 189.146 80.1391 188.129 78.3198 187.093C76.8066 186.234 75.3157 185.34 73.8285 184.439C72.0484 183.358 70.2963 182.235 68.5554 181.094C66.8145 179.954 65.1127 178.772 63.4185 177.574C61.7242 176.376 60.0934 175.157 58.4588 173.91L58.4868 173.933C57.9407 173.512 57.3965 173.089 56.8542 172.662C56.3118 172.235 55.7737 171.805 55.24 171.372C53.85 170.252 52.4897 169.104 51.1351 167.943C50.0397 167.01 48.9687 166.032 47.9014 165.06C46.5822 163.858 45.289 162.62 44.0221 161.372C43.0127 160.384 42.0293 159.373 41.0497 158.357C39.8368 157.101 38.6594 155.808 37.4932 154.509C36.3269 153.21 35.2225 151.896 34.1159 150.574C33.0094 149.253 31.9756 147.931 30.9438 146.588C30.537 146.06 30.1352 145.529 29.7384 144.994C29.3416 144.459 28.9397 143.912 28.533 143.353C27.5385 141.989 26.5831 140.595 25.639 139.195C24.8926 138.075 24.1649 136.955 23.4465 135.816C22.5527 134.404 21.7 132.968 20.8566 131.524C20.1848 130.374 19.5505 129.207 18.9048 128.041C18.11 126.587 17.3561 125.111 16.6116 123.629C15.2775 120.973 14.0552 118.261 12.8909 115.528L12.9208 115.601C12.6658 114.994 12.4139 114.385 12.1651 113.774C11.7919 112.859 11.4336 111.937 11.0773 111.015C10.4839 109.481 9.9315 107.93 9.39787 106.375C8.86418 104.821 8.35478 103.253 7.86595 101.681C7.27629 99.7944 6.74632 97.8887 6.22576 95.9812C5.79473 94.3873 5.40483 92.7841 5.02416 91.1789C4.64348 89.5738 4.30388 87.9518 3.97179 86.3261C3.63964 84.7005 3.34667 83.073 3.06493 81.4399C2.72527 79.4745 2.43608 77.4998 2.16552 75.5233L2.17675 75.6035C2.04607 74.6105 1.92302 73.6195 1.80358 72.6173C1.68413 71.615 1.5833 70.6257 1.4807 69.6309C1.24376 67.296 1.07207 64.9536 0.920949 62.6112C0.794118 60.5936 0.715749 58.5723 0.654165 56.551C0.583242 54.1825 0.573965 51.8102 0.588858 49.4398C0.601919 47.3867 0.661551 45.3524 0.738089 43.3105C0.823905 40.914 0.973197 38.5194 1.143 36.1285C1.29046 34.0754 1.48254 32.0092 1.6878 29.9524C1.92852 27.5596 2.22527 25.1706 2.54247 22.7853C2.77886 21.0681 3.0313 19.3529 3.30004 17.6395C3.62286 15.5678 3.99041 13.5016 4.3692 11.4373C4.49609 10.7487 4.6286 10.0599 4.76104 9.37122C4.83007 9.02594 4.89721 8.6825 4.96441 8.33722C5.09875 7.64667 5.23071 6.95545 5.36004 6.26361C5.75189 4.17878 6.11944 2.08844 6.49078 -0.000117992C6.3919 0.341496 6.29486 0.679203 6.19598 1.01892C6.00439 1.6958 5.81787 2.37519 5.63623 3.05701C5.36193 4.07611 5.11932 5.11017 4.8767 6.13111C4.63415 7.15204 4.42706 8.18415 4.2218 9.22376C4.01653 10.2634 3.82812 11.29 3.63781 12.324C3.26464 14.3864 2.92126 16.4543 2.59472 18.5242C2.26818 20.5941 1.98455 22.7032 1.71398 24.7973C1.18591 28.9035 0.795952 33.0283 0.499259 37.1587C0.351859 39.2118 0.249259 41.2648 0.161551 43.3179C0.062613 45.6976 0.0197051 48.0811 0.00292019 50.4645C-0.0102025 52.497 0.0234276 54.5297 0.0719504 56.5584C0.120473 58.5872 0.219411 60.6011 0.335072 62.6187C0.450734 64.6364 0.611256 66.6353 0.792225 68.6379C1.0031 70.9673 1.27739 73.2873 1.57964 75.6054C1.79802 77.2852 2.05547 78.95 2.32604 80.6185C2.64141 82.582 3.0089 84.538 3.39519 86.4885C3.78142 88.4388 4.21807 90.3688 4.67333 92.3006C5.20323 94.5403 5.80602 96.78 6.4348 98.9973C6.97405 100.899 7.56932 102.784 8.18132 104.662C8.79332 106.54 9.46129 108.395 10.148 110.252C10.8346 112.109 11.5792 113.936 12.3405 115.762C13.1018 117.587 13.9433 119.44 14.7942 121.258C15.645 123.076 16.5314 124.831 17.4457 126.593C18.36 128.354 19.3415 130.103 20.3342 131.832C21.3268 133.56 22.3867 135.277 23.4615 136.972C24.7228 138.963 26.055 140.908 27.4153 142.834C28.003 143.665 28.6076 144.484 29.2122 145.302C29.632 145.862 30.0613 146.435 30.4942 146.993C31.1162 147.804 31.7499 148.613 32.3955 149.419C33.0374 150.225 33.7016 151.017 34.3584 151.808C35.6907 153.406 37.0752 154.96 38.4747 156.498C40.1335 158.318 41.8558 160.078 43.6023 161.812C45.123 163.322 46.6942 164.784 48.2784 166.226C49.8625 167.669 51.5474 169.108 53.2193 170.504C54.8053 171.829 56.4288 173.117 58.0707 174.371C59.7127 175.626 61.4294 176.891 63.1293 178.104C64.8291 179.318 66.5383 180.475 68.268 181.623C69.9978 182.77 71.7666 183.877 73.5412 184.967C75.3157 186.057 77.1256 187.106 78.9411 188.14C81.0646 189.348 83.2216 190.497 85.3898 191.623C87.2557 192.592 89.1441 193.515 91.038 194.423C92.9319 195.33 94.8614 196.199 96.7889 197.052C98.4253 197.775 100.075 198.465 101.726 199.146C104.012 200.089 106.322 200.974 108.63 201.836C112.618 203.329 116.653 204.664 120.719 205.92C122.757 206.551 124.809 207.139 126.864 207.712C129.264 208.382 131.68 208.997 134.1 209.593C138.254 210.616 142.441 211.499 146.641 212.299C148.744 212.701 150.852 213.061 152.963 213.408C154.017 213.581 155.075 213.742 156.135 213.901C157.195 214.059 158.303 214.22 159.389 214.365C160.475 214.511 161.507 214.643 162.561 214.778C163.615 214.912 164.681 215.03 165.733 215.151C167.853 215.392 169.974 215.59 172.098 215.776C176.679 216.18 181.275 216.43 185.87 216.585C190.082 216.726 194.297 216.739 198.508 216.672C203.026 216.599 207.539 216.379 212.046 216.062C216.151 215.773 220.245 215.353 224.329 214.854C226.038 214.645 227.744 214.406 229.447 214.16C231.983 213.787 234.508 213.367 237.027 212.911C239.234 212.512 241.43 212.06 243.623 211.594C245.815 211.127 247.961 210.614 250.12 210.082C252.279 209.55 254.395 208.977 256.522 208.385C258.987 207.697 261.433 206.95 263.874 206.179C267.335 205.085 270.763 203.883 274.168 202.633C277.573 201.382 280.908 200.039 284.244 198.643C287.254 197.381 290.232 196.044 293.201 194.671C296.462 193.161 299.683 191.567 302.883 189.932C306.083 188.297 309.248 186.589 312.388 184.846C315.528 183.103 318.643 181.29 321.733 179.448C324.823 177.606 327.89 175.698 330.932 173.769C333.973 171.839 337.001 169.849 340.004 167.843C346.033 163.813 351.962 159.63 357.835 155.379C363.736 151.104 369.566 146.73 375.361 142.314C380.903 138.094 386.418 133.841 391.905 129.553C397.966 124.838 404.029 120.125 410.094 115.413L410.041 115.45C412.644 113.439 415.251 111.435 417.863 109.438C420.736 107.241 423.619 105.06 426.514 102.895C429.044 101.013 431.615 99.1878 434.203 97.3905C437.111 95.3728 440.066 93.4279 443.048 91.5223C445.748 89.7959 448.489 88.131 451.258 86.5016C454.337 84.6837 457.462 82.9554 460.614 81.2588C463.765 79.5622 466.973 77.9628 470.201 76.4061C473.429 74.8495 476.691 73.3993 479.984 72.0013L479.924 72.0256C480.582 71.7469 481.242 71.4725 481.902 71.2025C482.891 70.7937 483.886 70.3999 484.888 70.0043C486.873 69.2185 488.875 68.4756 490.885 67.7496C492.894 67.0235 494.906 66.3497 496.931 65.6965C498.955 65.0433 500.981 64.4311 503.017 63.8413C504.71 63.3504 506.413 62.9081 508.119 62.4601C510.158 61.9319 512.211 61.4597 514.265 61.008C516.319 60.5564 518.37 60.1625 520.438 59.7892C522.505 59.4159 524.557 59.1062 526.625 58.815L526.593 58.815C527.269 58.7217 527.948 58.6283 528.625 58.55C529.303 58.4715 530.002 58.3857 530.693 58.3091C532.068 58.1543 533.447 58.0329 534.828 57.9172C536.208 57.8014 537.584 57.7193 538.962 57.6429C540.683 57.5496 542.407 57.5048 544.129 57.473C545.506 57.4487 546.883 57.4618 548.259 57.473C549.979 57.4954 551.697 57.57 553.414 57.6596C554.787 57.7324 556.159 57.8463 557.53 57.9601C559.234 58.1039 560.932 58.3054 562.63 58.52C563.643 58.6582 564.653 58.8043 565.662 58.9587C567.028 59.1677 568.386 59.4178 569.743 59.6735C571.099 59.9293 572.456 60.2335 573.809 60.5321C575.162 60.8307 576.511 61.1854 577.854 61.54C578.867 61.805 579.873 62.0999 580.879 62.3929C582.224 62.7867 583.558 63.2217 584.891 63.664C586.223 64.1064 587.557 64.5972 588.88 65.0918C590.203 65.5864 591.492 66.1164 592.787 66.6558L592.845 66.6782L592.8 66.6614L593.771 67.0758C594.429 67.3619 595.085 67.6532 595.739 67.9493C597.06 68.5429 598.351 69.1793 599.658 69.8157C600.641 70.3029 601.607 70.8162 602.576 71.3294C603.882 72.0218 605.162 72.7554 606.438 73.4963C607.407 74.0563 608.362 74.6461 609.314 75.2322C610.601 76.0273 611.863 76.8616 613.118 77.7015C614.072 78.3417 615.009 79.0079 615.947 79.6724C617.039 80.4451 618.108 81.2532 619.17 82.067L619.916 82.6587C620.42 83.0544 620.917 83.4557 621.409 83.8625C622.155 84.4617 622.87 85.0831 623.592 85.7046C625.251 87.1306 626.84 88.6313 628.4 90.1636C629.93 91.6661 631.386 93.2394 632.813 94.839C634.205 96.403 635.523 98.0306 636.808 99.6805C637.346 100.386 637.876 101.096 638.4 101.81C639.101 102.768 639.771 103.746 640.436 104.727C641.589 106.433 642.662 108.191 643.703 109.966C644.744 111.741 645.686 113.541 646.604 115.368C647.522 117.195 648.297 119.056 649.099 120.921C649.317 121.439 649.53 121.96 649.741 122.485C649.952 123.009 650.166 123.562 650.374 124.105C650.79 125.185 651.174 126.279 651.553 127.375C652.312 129.566 652.969 131.793 653.581 134.029C654.193 136.265 654.701 138.54 655.169 140.815C655.637 143.09 656.005 145.395 656.331 147.7C656.408 148.26 656.479 148.82 656.548 149.38C656.617 149.94 656.686 150.545 656.748 151.127C656.91 152.585 657.027 154.046 657.136 155.509C657.352 158.453 657.431 161.404 657.44 164.354C657.449 167.305 657.328 170.297 657.138 173.263C656.947 176.229 656.63 179.235 656.249 182.199L656.261 182.125C656.18 182.72 656.1 183.317 656.014 183.911C655.887 184.807 655.746 185.699 655.602 186.589C655.316 188.379 654.981 190.16 654.632 191.936C654.283 193.713 653.885 195.494 653.465 197.263C653.046 199.033 652.587 200.81 652.109 202.56C651.23 205.793 650.222 208.992 649.144 212.163C647.965 215.633 646.64 219.05 645.225 222.428C645.237 222.406 645.246 222.384 645.255 222.361C645.018 222.925 644.778 223.485 644.537 224.041C644.175 224.881 643.8 225.721 643.417 226.553C642.671 228.222 641.876 229.874 641.072 231.518C639.465 234.797 637.726 238.011 635.907 241.177C634.25 244.064 632.479 246.886 630.647 249.665C629.408 251.543 628.115 253.385 626.809 255.216C625.45 257.122 624.038 258.992 622.614 260.849C622.62 260.84 622.627 260.831 622.635 260.823L622.597 260.869C621.884 261.788 621.167 262.701 620.446 263.609C619.699 264.543 618.953 265.457 618.207 266.375C616.697 268.219 615.148 270.028 613.587 271.829C612.025 273.63 610.415 275.415 608.799 277.182C606.909 279.254 604.977 281.288 603.033 283.308C599.691 286.781 596.26 290.169 592.795 293.517C589.048 297.136 585.23 300.679 581.383 304.189C577.867 307.396 574.322 310.569 570.747 313.708C566.845 317.154 562.91 320.56 559.001 323.996C550.822 331.184 542.806 338.554 534.893 346.037C526.979 353.519 519.169 361.155 511.444 368.859C503.719 376.564 496.096 384.351 488.511 392.171C485.336 395.447 482.167 398.732 479.006 402.026C476.452 404.683 473.902 407.342 471.356 410.003C466.074 415.538 460.864 421.137 455.725 426.801C453.145 429.663 450.595 432.553 448.075 435.471C445.301 438.685 442.578 441.944 439.908 445.249C437.615 448.075 435.371 450.94 433.177 453.846C430.588 457.254 428.084 460.722 425.663 464.251C423.439 467.476 421.302 470.76 419.254 474.102C418.237 475.752 417.251 477.424 416.283 479.102C415.163 481.045 414.091 483.022 413.042 484.996C412.152 486.676 411.307 488.38 410.478 490.092C409.65 491.803 408.883 493.5 408.127 495.223C407.496 496.66 406.905 498.112 406.324 499.568C405.531 501.563 404.807 503.586 404.119 505.619C403.535 507.341 403.012 509.083 402.512 510.832C402.012 512.58 401.593 514.307 401.189 516.058C400.786 517.808 400.464 519.546 400.165 521.3C399.866 523.055 399.643 524.83 399.449 526.603C399.254 528.376 399.15 530.104 399.075 531.861C399.001 533.617 399.006 535.364 399.047 537.117C399.068 537.994 399.118 538.869 399.171 539.744C399.223 540.62 399.303 541.497 399.387 542.371C399.471 543.244 399.583 544.121 399.697 544.995C399.811 545.868 399.964 546.775 400.113 547.662C400.262 548.548 400.443 549.411 400.624 550.275C400.805 551.139 401.02 552.02 401.234 552.888C401.449 553.756 401.701 554.631 401.951 555.501C402.201 556.371 402.488 557.24 402.772 558.114C403.055 558.987 403.382 559.85 403.705 560.712C404.028 561.574 404.388 562.446 404.746 563.306C404.994 563.902 405.257 564.484 405.52 565.072C406.039 566.237 406.608 567.377 407.185 568.514C407.625 569.382 408.097 570.233 408.569 571.084C409.041 571.935 409.562 572.799 410.073 573.648C410.584 574.497 411.146 575.358 411.698 576.203C412.251 577.049 412.85 577.904 413.441 578.742C414.436 580.155 415.494 581.523 416.557 582.882C417.192 583.69 417.85 584.479 418.507 585.271C419.384 586.325 420.291 587.355 421.2 588.384C422.566 589.927 423.98 591.432 425.402 592.925C426.824 594.418 428.287 595.891 429.748 597.356C431.209 598.821 432.692 600.271 434.174 601.721C435.655 603.172 437.137 604.62 438.616 606.072C440.096 607.524 441.557 608.984 443.014 610.454C444.472 611.925 445.893 613.411 447.306 614.915C448.718 616.419 450.082 617.95 451.43 619.505C452.101 620.277 452.756 621.069 453.408 621.86C454.059 622.651 454.691 623.458 455.322 624.266L455.301 624.238C455.719 624.779 456.131 625.324 456.537 625.873C456.942 626.422 457.342 626.975 457.737 627.534C458.132 628.094 458.518 628.654 458.901 629.214C459.479 630.063 460.02 630.935 460.58 631.804C460.94 632.388 461.295 632.977 461.646 633.57C461.996 634.164 462.341 634.761 462.679 635.362C463.016 635.965 463.349 636.572 463.676 637.182C464.17 638.102 464.633 639.039 465.092 639.981L465.099 640ZM622.61 260.883L622.627 260.862L622.608 260.884L622.61 260.883ZM435.357 451.712L435.336 451.738C435.344 451.731 435.351 451.722 435.357 451.712Z" fill="#7D8F91"/>
</svg>
