<svg width="915" height="402" viewBox="0 0 915 402" fill="none" xmlns="http://www.w3.org/2000/svg">
<path opacity="0.5" d="M914.689 141.986C913.799 142.606 912.921 143.244 912.057 143.9C911.192 144.556 910.343 145.219 909.509 145.89C908.678 146.564 907.858 147.252 907.049 147.955C905.831 148.992 904.672 150.091 903.509 151.191C901.969 152.652 900.496 154.179 899.029 155.705C897.203 157.622 895.465 159.62 893.747 161.632C892.703 162.85 891.697 164.102 890.703 165.351C889.041 167.413 887.463 169.533 885.875 171.665C884.287 173.796 882.77 175.98 881.259 178.166C879.748 180.351 878.269 182.577 876.802 184.803C874.154 188.822 871.588 192.891 869.019 196.961C866.163 201.485 863.308 206.013 860.4 210.501C859.236 212.295 858.059 214.079 856.867 215.852C855.386 218.066 853.864 220.254 852.324 222.431C850.785 224.608 849.202 226.736 847.59 228.851C845.978 230.967 844.309 233.024 842.613 235.067C842.625 235.05 842.639 235.034 842.653 235.02C841.971 235.833 841.28 236.638 840.582 237.435C839.538 238.642 838.459 239.813 837.377 240.983C836.295 242.154 835.184 243.272 834.068 244.397C832.952 245.521 831.843 246.565 830.708 247.629C829.96 248.322 829.203 249.007 828.438 249.683C827.314 250.688 826.152 251.654 824.993 252.617C823.834 253.58 822.674 254.472 821.496 255.379C820.319 256.287 819.174 257.099 817.996 257.935L817.953 257.968L817.989 257.943C817.204 258.493 816.414 259.032 815.619 259.56C814.433 260.36 813.214 261.117 811.998 261.87C809.999 263.112 807.939 264.251 805.867 265.361C803.795 266.47 801.725 267.438 799.618 268.41C798.364 268.976 797.091 269.508 795.825 270.033C794.559 270.558 793.274 271.033 791.999 271.504L792.016 271.5C791.603 271.645 791.191 271.793 790.779 271.938C789.923 272.239 789.059 272.529 788.19 272.793C786.897 273.22 785.591 273.597 784.282 273.977C781.672 274.733 779.023 275.349 776.367 275.922C773.712 276.496 771.024 276.931 768.333 277.326C765.642 277.721 762.945 277.987 760.238 278.211C758.877 278.308 757.515 278.394 756.15 278.47C754.316 278.57 752.479 278.6 750.64 278.625C748.802 278.649 746.942 278.619 745.095 278.578C743.249 278.536 741.374 278.435 739.516 278.328C735.758 278.114 732.013 277.722 728.276 277.264C724.491 276.798 720.728 276.174 716.975 275.489L717.028 275.501L716.972 275.489L716.952 275.494L716.969 275.49C715.568 275.223 714.167 274.947 712.766 274.662C711.34 274.379 709.917 274.054 708.496 273.734C705.148 272.979 701.828 272.132 698.516 271.242C695.205 270.352 691.813 269.375 688.507 268.333C685.201 267.291 681.825 266.173 678.532 265.015C675.24 263.858 671.886 262.608 668.589 261.345C665.291 260.082 661.977 258.728 658.695 257.359C652.116 254.618 645.628 251.667 639.186 248.615L639.215 248.627C636.454 247.307 633.698 245.968 630.948 244.609C628.214 243.254 625.496 241.863 622.784 240.46C616.962 237.457 611.199 234.341 605.468 231.171C594.853 225.296 584.395 219.147 573.996 212.887C564.514 207.175 555.106 201.337 545.681 195.521C531.335 186.649 517.037 177.691 502.786 168.648C488.532 159.571 474.381 150.332 460.333 140.932C446.285 131.532 432.415 121.914 418.724 112.079C412.215 107.402 405.754 102.661 399.342 97.856C393.02 93.1376 386.68 88.4476 380.322 83.786C374.347 79.4162 368.331 75.0987 362.275 70.8333C355.661 66.1855 348.978 61.6416 342.225 57.2015C335.989 53.1029 329.672 49.131 323.276 45.2858C320.099 43.3645 316.89 41.4886 313.65 39.6579C309.901 37.5113 306.109 35.4537 302.298 33.4298C299.05 31.7073 295.766 30.0545 292.467 28.4286C289.701 27.0658 286.907 25.7597 284.104 24.4729C280.817 22.9539 277.46 21.5266 274.107 20.1282C270.835 18.7654 267.524 17.4939 264.199 16.2668C258.903 14.3153 253.528 12.5877 248.118 10.9951C245.402 10.1949 242.667 9.46424 239.938 8.74989C236.734 7.91934 233.506 7.18268 230.272 6.47671C225.151 5.35964 219.982 4.43882 214.804 3.63547C211.999 3.20057 209.183 2.83614 206.367 2.50117C203.085 2.10145 199.79 1.79883 196.494 1.52911C193.675 1.30133 190.85 1.14559 188.025 1.01367C185.2 0.881755 182.381 0.822288 179.559 0.790071C176.738 0.757853 173.938 0.797821 171.118 0.868721C167.85 0.947693 164.582 1.12416 161.317 1.34138C158.957 1.49924 156.6 1.71261 154.244 1.94634C151.476 2.21595 148.716 2.56645 145.959 2.943C143.202 3.31956 140.504 3.77796 137.768 4.26243C134.601 4.82217 131.454 5.48983 128.319 6.19925C125.641 6.80694 122.976 7.49777 120.338 8.2182C117.699 8.93863 115.089 9.73292 112.485 10.5611C111.19 10.9739 109.9 11.415 108.621 11.8537C107.732 12.161 106.838 12.4781 105.953 12.8052C104.674 13.2785 103.403 13.7569 102.14 14.2404C100.459 14.899 98.7906 15.5874 97.1251 16.2899C94.6347 17.3391 92.1813 18.4778 89.7457 19.657C87.31 20.8362 84.9229 22.0759 82.5535 23.3561C80.1841 24.6363 77.8614 26.0098 75.559 27.4086C72.8726 29.044 70.2547 30.7917 67.6734 32.5847C65.7921 33.8777 63.9592 35.2579 62.1401 36.6469C59.9861 38.2944 57.8984 40.0163 55.8476 41.7716C53.7968 43.5269 51.7749 45.3883 49.8036 47.2654C47.4839 49.4749 45.2701 51.7916 43.1007 54.149C41.5106 55.8728 39.9901 57.6585 38.4847 59.4586C36.6873 61.6203 34.989 63.8287 33.3053 66.0782C31.6217 68.3277 30.0115 70.7121 28.4461 73.084C26.5872 75.9064 24.8646 78.8117 23.1991 81.749C21.7387 84.3198 20.3921 86.9518 19.0788 89.6002C17.9086 91.9665 16.8304 94.375 15.7689 96.7917C14.3498 100.033 13.0582 103.331 11.8172 106.643C11.2073 108.274 10.6419 109.918 10.0772 111.565C9.33251 113.736 8.65177 115.929 7.99255 118.126C7.0121 121.37 6.16731 124.654 5.37763 127.946C4.98333 129.574 4.63584 131.213 4.28763 132.849C4.04911 133.965 3.82546 135.095 3.62046 136.215L3.32149 137.846C3.12747 138.931 2.94295 140.018 2.76797 141.108C2.49959 142.73 2.28643 144.36 2.04718 145.994C1.53244 149.764 1.19366 153.568 0.918623 157.352C0.688552 160.577 0.590739 163.811 0.530959 167.043C0.471175 170.275 0.545964 173.472 0.659515 176.685C0.70971 178.288 0.814814 179.885 0.91212 181.487C0.979615 182.581 1.06167 183.686 1.15581 184.781C1.29287 186.375 1.43936 187.967 1.59527 189.557C1.81668 191.679 2.09745 193.788 2.37138 195.893C2.80472 199.051 3.35533 202.205 3.94158 205.345C4.52777 208.484 5.22391 211.612 5.96692 214.724C6.70986 217.836 7.53954 220.938 8.4098 224.023C9.43147 227.63 10.5814 231.201 11.7781 234.756C12.6487 237.335 13.5881 239.89 14.5461 242.436C15.6827 245.466 16.9103 248.464 18.1677 251.45C19.4251 254.436 20.7705 257.391 22.1455 260.346C23.7555 263.8 25.4674 267.205 27.2194 270.59C28.7385 273.514 30.3102 276.379 31.9169 279.242C33.5236 282.106 35.2197 284.944 36.9178 287.764C38.6158 290.584 40.4025 293.376 42.2003 296.151C44.3065 299.394 46.4901 302.585 48.7132 305.753C52.5414 311.228 56.5622 316.568 60.6889 321.823C63.0856 324.876 65.546 327.868 68.0431 330.853C70.5403 333.837 73.0818 336.753 75.6588 339.655C80.4227 345.024 85.3631 350.236 90.4006 355.35C95.7753 360.805 101.325 366.086 106.977 371.248C112.278 376.087 117.736 380.749 123.188 385.413C128.803 390.215 134.443 394.991 140.109 399.741C151.817 409.581 163.582 419.356 175.285 429.2L175.209 429.137C180.835 433.874 186.442 438.632 192.03 443.413C198.035 448.551 203.997 453.738 209.916 458.975C215.836 464.212 221.671 469.502 227.422 474.844C233.187 480.174 238.868 485.59 244.465 491.094C249.653 496.178 254.75 501.353 259.756 506.62C265.141 512.268 270.398 518.03 275.528 523.906C280.659 529.783 285.637 535.775 290.464 541.882C292.885 544.937 295.247 548.039 297.584 551.158C299.921 554.278 302.166 557.409 304.397 560.575L304.392 560.552C305.351 561.921 306.304 563.299 307.253 564.685C308.199 566.068 309.131 567.463 310.06 568.858C312.244 572.12 314.339 575.434 316.411 578.765C318.482 582.095 320.494 585.504 322.45 588.918C324.407 592.333 326.331 595.831 328.193 599.325C330.054 602.819 331.855 606.418 333.603 610.005C335.352 613.592 337.04 617.286 338.672 620.965C340.304 624.645 341.874 628.445 343.385 632.221C344.777 635.708 346.081 639.227 347.364 642.755L347.385 642.851L347.375 642.806C347.889 644.271 348.402 645.737 348.916 647.203C349.612 649.205 350.273 651.214 350.932 653.223C352.26 657.276 353.493 661.355 354.679 665.451C355.865 669.546 356.983 673.736 358.042 677.9C359.101 682.064 360.081 686.328 361.007 690.547C361.933 694.767 362.772 699.079 363.564 703.362C364.356 707.646 365.057 711.991 365.708 716.32C366.358 720.649 366.919 725.024 367.429 729.39C367.939 733.755 368.346 738.081 368.709 742.433C368.841 744.084 368.964 745.732 369.079 747.379C369.234 749.58 369.358 751.785 369.475 753.986C369.682 757.846 369.805 761.71 369.905 765.57C370.004 769.429 370.005 773.299 369.979 777.165C369.949 781.579 369.813 785.989 369.625 790.399C369.463 794.253 369.217 798.102 368.928 801.948C368.603 806.334 368.158 810.714 367.677 815.083C367.252 818.897 366.735 822.7 366.183 826.5C365.554 830.827 364.807 835.136 364.007 839.438L364.015 839.404C363.819 840.446 363.617 841.486 363.407 842.527C363.094 844.132 362.755 845.73 362.414 847.329C361.739 850.52 360.988 853.691 360.211 856.862C359.433 860.034 358.589 863.157 357.715 866.29C356.841 869.423 355.895 872.513 354.92 875.605C354.114 878.177 353.247 880.726 352.367 883.272C351.312 886.32 350.182 889.34 349.023 892.348C347.864 895.356 346.63 898.318 345.369 901.275C344.107 904.231 342.794 907.099 341.439 909.981L341.464 909.931C341.005 910.895 340.541 911.858 340.072 912.818C339.602 913.779 339.127 914.734 338.645 915.683C337.403 918.154 336.108 920.588 334.792 923.019C333.736 924.982 332.605 926.923 331.48 928.857C330.09 931.247 328.638 933.609 327.161 935.935C325.995 937.786 324.783 939.605 323.565 941.42C322.058 943.667 320.484 945.872 318.897 948.063C317.31 950.253 315.68 952.355 314.04 954.462C312.399 956.569 310.735 958.566 309.036 960.568C308.37 961.356 307.696 962.138 307.015 962.914C306.334 963.689 305.637 964.476 304.924 965.275C303.182 967.227 301.382 969.129 299.569 971.016C298.117 972.512 296.658 973.98 295.168 975.44C293.319 977.255 291.423 979.015 289.51 980.764C287.988 982.157 286.428 983.499 284.872 984.858C282.929 986.537 280.938 988.161 278.936 989.773C275.348 992.661 271.639 995.398 267.88 998.054L267.98 997.985C267.144 998.57 266.303 999.151 265.459 999.727C264.195 1000.59 262.915 1001.43 261.635 1002.28C259.504 1003.68 257.335 1005.02 255.154 1006.34C252.973 1007.65 250.764 1008.94 248.543 1010.19C245.877 1011.7 243.163 1013.13 240.443 1014.54C238.169 1015.71 235.867 1016.83 233.56 1017.93C231.252 1019.03 228.906 1020.07 226.552 1021.11C224.197 1022.14 221.827 1023.12 219.445 1024.08C216.578 1025.24 213.681 1026.32 210.775 1027.38L210.893 1027.33C209.431 1027.86 207.97 1028.37 206.49 1028.87C205.011 1029.38 203.545 1029.86 202.071 1030.34C198.611 1031.46 195.119 1032.49 191.619 1033.48C188.604 1034.34 185.567 1035.12 182.525 1035.87C178.959 1036.75 175.368 1037.54 171.772 1038.3C168.657 1038.95 165.556 1039.52 162.437 1040.08C158.778 1040.73 155.101 1041.29 151.423 1041.81C148.265 1042.26 145.071 1042.65 141.888 1043.01C138.184 1043.43 134.468 1043.76 130.75 1044.06C128.071 1044.26 125.39 1044.44 122.706 1044.6C119.462 1044.78 116.212 1044.9 112.96 1045.01C111.875 1045.04 110.789 1045.06 109.702 1045.09C109.156 1045.1 108.614 1045.11 108.069 1045.12C106.979 1045.14 105.888 1045.17 104.798 1045.2C101.511 1045.29 98.2241 1045.41 94.9384 1045.54C95.4883 1045.57 96.0317 1045.61 96.5787 1045.65C97.6668 1045.72 98.7571 1045.78 99.8495 1045.83C101.483 1045.91 103.129 1045.94 104.755 1045.97C106.381 1046.01 108.013 1045.98 109.655 1045.95C111.297 1045.92 112.914 1045.87 114.543 1045.82C117.789 1045.71 121.035 1045.56 124.277 1045.37C127.52 1045.19 130.808 1044.93 134.069 1044.65C140.463 1044.11 146.84 1043.35 153.195 1042.45C156.353 1042 159.497 1041.48 162.637 1040.95C166.274 1040.32 169.9 1039.6 173.516 1038.85C176.6 1038.2 179.668 1037.49 182.726 1036.75C185.784 1036.01 188.803 1035.2 191.822 1034.37C194.841 1033.53 197.817 1032.64 200.792 1031.71C204.252 1030.63 207.677 1029.45 211.091 1028.24C213.564 1027.36 216.003 1026.42 218.442 1025.47C221.314 1024.35 224.157 1023.15 226.986 1021.93C229.815 1020.71 232.596 1019.41 235.374 1018.09C238.594 1016.56 241.79 1014.91 244.944 1013.23C247.649 1011.8 250.311 1010.28 252.956 1008.74C255.6 1007.2 258.193 1005.58 260.782 1003.93C263.371 1002.29 265.896 1000.56 268.413 998.811C270.93 997.062 273.463 995.182 275.939 993.299C278.415 991.416 280.784 989.501 283.154 987.54C285.525 985.58 287.854 983.522 290.148 981.454C292.442 979.386 294.697 977.22 296.913 975.039C299.518 972.478 302.029 969.826 304.503 967.136C305.569 965.975 306.613 964.792 307.654 963.609C308.365 962.791 309.093 961.954 309.797 961.116C310.823 959.909 311.841 958.685 312.851 957.444C313.863 956.209 314.845 954.944 315.829 953.691C317.815 951.152 319.718 948.548 321.59 945.926C323.805 942.82 325.909 939.637 327.965 936.426C329.756 933.631 331.456 930.774 333.124 927.904C334.793 925.034 336.422 922.013 337.991 919.026C339.48 916.192 340.901 913.313 342.264 910.417C343.628 907.522 344.984 904.509 346.266 901.539C347.549 898.569 348.744 895.604 349.917 892.61C351.091 889.616 352.19 886.577 353.261 883.534C354.333 880.492 355.33 877.409 356.303 874.322C357.439 870.713 358.476 867.072 359.472 863.422C360.33 860.281 361.113 857.12 361.868 853.956C362.623 850.793 363.31 847.588 363.973 844.391C364.532 841.678 365.039 838.955 365.532 836.233C366.213 832.465 366.798 828.679 367.35 824.903C368.309 818.379 369.012 811.833 369.586 805.268C369.876 801.977 370.096 798.678 370.292 795.381C370.523 791.529 370.667 787.67 370.778 783.812C370.97 777.191 370.939 770.564 370.779 763.944C370.7 760.63 370.556 757.32 370.393 754.012C370.311 752.36 370.208 750.706 370.102 749.05C369.996 747.394 369.877 745.663 369.743 743.972C369.609 742.281 369.472 740.675 369.331 739.036C369.19 737.396 369.02 735.745 368.86 734.112C368.532 730.825 368.138 727.549 367.727 724.274C366.841 717.208 365.717 710.169 364.45 703.162C363.289 696.741 361.931 690.357 360.452 684.004C358.866 677.19 357.057 670.43 355.103 663.713C353.323 657.594 351.349 651.534 349.259 645.515C348.384 642.996 347.464 640.493 346.534 637.994C345.14 634.278 343.678 630.594 342.165 626.93C340.839 623.72 339.436 620.543 338.013 617.377C336.589 614.211 335.11 611.131 333.599 608.037C332.087 604.943 330.528 601.928 328.936 598.902C327.087 595.396 325.156 591.937 323.191 588.495C320.402 583.614 317.461 578.819 314.453 574.073C311.446 569.328 308.32 564.72 305.114 560.127C302.219 555.984 299.221 551.913 296.17 547.869C292.816 543.426 289.348 539.073 285.825 534.764C282.302 530.455 278.681 526.223 275.013 522.04C271.346 517.857 267.582 513.736 263.781 509.661C259.98 505.587 256.087 501.567 252.169 497.595C248.252 493.623 244.247 489.69 240.226 485.802C232.151 477.994 223.875 470.387 215.515 462.889C207.11 455.354 198.576 447.962 189.992 440.634C181.788 433.626 173.541 426.67 165.251 419.767C156.127 412.134 147.005 404.499 137.883 396.861L137.957 396.928C134.06 393.646 130.172 390.355 126.292 387.054C122.024 383.426 117.777 379.775 113.551 376.101C109.873 372.887 106.267 369.592 102.698 366.263C98.6914 362.522 94.7787 358.685 90.917 354.795C87.419 351.273 84.0007 347.668 80.627 344.01C76.8665 339.944 73.2265 335.779 69.626 331.563C66.0256 327.348 62.5538 323.016 59.1404 318.639C55.727 314.262 52.4638 309.8 49.2694 305.272L49.3256 305.354C48.6882 304.45 48.0571 303.541 47.4322 302.63C46.4897 301.267 45.5679 299.89 44.6409 298.503C42.8015 295.755 41.0217 292.967 39.2648 290.163C37.508 287.358 35.8298 284.534 34.1784 281.683C32.527 278.833 30.9372 275.966 29.3783 273.077C28.0814 270.676 26.8544 268.242 25.6183 265.807C24.1515 262.893 22.7652 259.94 21.4095 256.979C20.0537 254.017 18.7868 251.041 17.5455 248.034C16.3042 245.027 15.1641 242.021 14.0472 238.987L14.0576 239.035C13.6954 238.043 13.332 237.046 12.9918 236.046C12.6517 235.047 12.2929 234.016 11.9513 232.996C11.2672 230.965 10.6326 228.917 10.006 226.865C9.37941 224.813 8.80555 222.758 8.23894 220.696C7.53526 218.122 6.90385 215.527 6.29287 212.931C5.80598 210.854 5.37577 208.765 4.94325 206.68C4.41491 204.069 3.96622 201.443 3.54094 198.815C3.2024 196.713 2.92675 194.6 2.65098 192.486C2.31188 189.861 2.06224 187.225 1.83248 184.584C1.71076 183.006 1.60188 181.429 1.50596 179.851C1.37628 177.715 1.31114 175.577 1.25527 173.44C1.19934 171.303 1.21685 169.15 1.22722 167.005C1.23754 164.86 1.33379 162.702 1.43199 160.552C1.50235 158.932 1.62049 157.313 1.73571 155.695C1.89266 153.529 2.1155 151.368 2.35028 149.206C2.58507 147.045 2.89269 144.865 3.20963 142.701C3.52657 140.536 3.90818 138.411 4.30217 136.275L4.31721 136.18L4.30643 136.253L4.61705 134.649C4.83552 133.559 5.0623 132.471 5.29715 131.383C5.76463 129.19 6.30678 127.027 6.84416 124.842C7.26076 123.194 7.72253 121.563 8.18362 119.929C8.80585 117.726 9.49877 115.548 10.2043 113.374C10.736 111.725 11.3175 110.086 11.8943 108.453C12.6782 106.245 13.53 104.062 14.392 101.887C15.0503 100.234 15.7536 98.5982 16.4535 96.9602C17.2675 95.0551 18.1424 93.1724 19.0283 91.2991L19.6809 89.9757C20.1157 89.0837 20.561 88.1993 21.0169 87.3224C21.6806 85.9966 22.3886 84.7116 23.0942 83.4152C24.7125 80.4378 26.4665 77.5405 28.2782 74.678C30.0545 71.8705 31.9625 69.1528 33.9194 66.4689C35.8341 63.8502 37.8694 61.3237 39.949 58.838C40.8422 57.7937 41.7443 56.7584 42.6553 55.7321C43.8766 54.3569 45.1393 53.023 46.4097 51.6963C48.6173 49.3928 50.9304 47.1936 53.2793 45.0369C55.6283 42.8802 58.0463 40.8653 60.5146 38.8779C62.9829 36.8905 65.5492 35.1096 68.1119 33.2852C68.8267 32.785 69.546 32.2927 70.2717 31.8019C70.9974 31.3112 71.7643 30.8057 72.5195 30.3145C74.0208 29.3311 75.5522 28.3915 77.0883 27.4597C80.1599 25.5933 83.3187 23.8707 86.5064 22.2128C89.694 20.5549 92.9751 19.0424 96.2691 17.5892C99.5631 16.136 102.935 14.8255 106.321 13.5771C107.144 13.2782 107.969 12.9876 108.795 12.7C109.621 12.4123 110.514 12.11 111.377 11.8263C113.532 11.1037 115.708 10.4477 117.889 9.80514C122.278 8.51462 126.723 7.43064 131.191 6.45119C135.658 5.47174 140.231 4.67654 144.786 3.99441C149.342 3.31228 154.001 2.80878 158.616 2.41533L158.499 2.42281C159.428 2.34948 160.359 2.27554 161.286 2.21129C162.685 2.11026 164.083 2.03305 165.479 1.95929C168.284 1.80586 171.091 1.73175 173.897 1.67864C176.703 1.62552 179.531 1.64463 182.349 1.70128C185.167 1.75795 188.009 1.87143 190.818 2.02176C196.002 2.2945 201.179 2.77314 206.335 3.36825C211.978 4.01818 217.588 4.90552 223.169 5.94125C223.131 5.93164 223.094 5.92482 223.057 5.91803C223.989 6.09327 224.916 6.27256 225.837 6.45589C227.228 6.72906 228.623 7.02201 230.009 7.32868C232.781 7.91257 235.544 8.5754 238.298 9.25479C243.791 10.6138 249.229 12.1947 254.619 13.9129C259.535 15.4764 264.39 17.2336 269.199 19.0979C272.449 20.3591 275.663 21.7138 278.864 23.0918C282.195 24.5246 285.49 26.0508 288.769 27.5983C288.753 27.5916 288.737 27.5841 288.722 27.5758L288.805 27.617C290.43 28.3955 292.048 29.1823 293.66 29.9772C295.317 30.8017 296.947 31.6322 298.582 32.4616C301.869 34.1433 305.116 35.8958 308.355 37.6706C311.594 39.4455 314.824 41.2992 318.03 43.1669C321.786 45.3502 325.5 47.6079 329.195 49.8903C335.55 53.8125 341.804 57.8983 348.009 62.0479C354.717 66.5353 361.332 71.1551 367.908 75.8305C373.916 80.1026 379.881 84.431 385.806 88.8155C392.301 93.5942 398.748 98.4365 405.232 103.23C418.795 113.258 432.581 122.98 446.504 132.51C460.427 142.041 474.549 151.366 488.746 160.538C502.944 169.711 517.233 178.701 531.56 187.624C537.562 191.359 543.574 195.08 549.598 198.787C554.457 201.784 559.319 204.774 564.184 207.758C574.295 213.942 584.482 219.997 594.743 225.922C599.922 228.891 605.134 231.806 610.378 234.666C616.154 237.814 621.982 240.868 627.862 243.83C632.893 246.376 637.967 248.834 643.086 251.205C649.096 254.008 655.17 256.665 661.307 259.175C666.92 261.486 672.594 263.646 678.327 265.654C681.159 266.653 684.015 267.598 686.873 268.515C690.183 269.574 693.528 270.551 696.863 271.492C699.699 272.29 702.557 273.012 705.421 273.706C708.285 274.4 711.106 275.006 713.963 275.586C716.346 276.071 718.739 276.491 721.135 276.893C724.417 277.441 727.719 277.875 731.023 278.252C733.824 278.573 736.633 278.794 739.446 278.979C742.259 279.163 745.012 279.234 747.796 279.271C750.581 279.309 753.319 279.229 756.074 279.107C758.83 278.985 761.593 278.743 764.342 278.457C767.092 278.17 769.745 277.763 772.43 277.302C775.115 276.84 777.76 276.26 780.402 275.625C781.725 275.307 783.034 274.944 784.343 274.578C785.653 274.213 786.955 273.805 788.251 273.392C789.547 272.979 790.84 272.522 792.126 272.064C793.412 271.606 794.737 271.078 796.031 270.562C797.325 270.046 798.573 269.49 799.823 268.933C801.073 268.377 802.337 267.764 803.582 267.155C804.827 266.546 806.071 265.878 807.307 265.216C808.543 264.553 809.767 263.833 810.997 263.118C812.228 262.403 813.428 261.627 814.629 260.856C815.83 260.085 817.032 259.255 818.219 258.431C819.04 257.861 819.836 257.272 820.641 256.681C822.236 255.515 823.778 254.281 825.311 253.036C826.482 252.086 827.618 251.093 828.753 250.1C829.888 249.107 831.027 248.036 832.147 246.984C833.266 245.932 834.386 244.801 835.487 243.688C836.587 242.576 837.686 241.389 838.763 240.22C840.578 238.252 842.305 236.203 844.016 234.149C845.033 232.924 846.014 231.669 846.998 230.416C848.309 228.743 849.574 227.034 850.835 225.322C852.727 222.749 854.544 220.116 856.342 217.476C858.139 214.835 859.892 212.139 861.634 209.448C863.377 206.757 865.089 204.037 866.802 201.32C868.515 198.604 870.225 195.887 871.941 193.172C873.658 190.458 875.392 187.769 877.144 185.082C878.896 182.395 880.682 179.756 882.499 177.126C884.317 174.496 886.19 171.931 888.105 169.383C889.056 168.113 890.041 166.863 891.027 165.618C892.013 164.374 893.028 163.153 894.046 161.934L894.011 161.974C894.694 161.164 895.385 160.362 896.084 159.569C896.783 158.776 897.491 157.989 898.209 157.21C898.928 156.428 899.65 155.66 900.373 154.898C901.471 153.744 902.614 152.64 903.749 151.508C904.516 150.773 905.292 150.043 906.076 149.318C906.861 148.593 907.653 147.876 908.453 147.167C909.257 146.459 910.068 145.758 910.884 145.064C912.117 144.014 913.385 143.007 914.663 142.004L914.689 141.986ZM288.821 27.593L288.784 27.5743L288.824 27.5952L288.821 27.593ZM639.142 248.604L639.188 248.626C639.174 248.617 639.158 248.61 639.142 248.604Z" fill="#7D8F91"/>
</svg>
